<svg width="32" height="32" viewBox="0 0 32 32" fill="none" xmlns="http://www.w3.org/2000/svg">
<path d="M16 2.57129C18.9553 2.57129 21.7895 3.74527 23.8792 5.83496C25.9689 7.92465 27.1429 10.7589 27.1429 13.7141C27.1429 18.4227 23.8343 23.5541 17.3029 29.1633C16.9397 29.4753 16.4767 29.6466 15.9979 29.6462C15.5191 29.6458 15.0564 29.4736 14.6938 29.161L14.2617 28.7861C8.01946 23.3233 4.85718 18.3176 4.85718 13.7141C4.85718 10.7589 6.03115 7.92465 8.12085 5.83496C10.2105 3.74527 13.0448 2.57129 16 2.57129ZM16 9.42843C14.8634 9.42843 13.7733 9.87996 12.9696 10.6837C12.1659 11.4874 11.7143 12.5775 11.7143 13.7141C11.7143 14.8508 12.1659 15.9409 12.9696 16.7446C13.7733 17.5483 14.8634 17.9999 16 17.9999C17.1367 17.9999 18.2268 17.5483 19.0305 16.7446C19.8342 15.9409 20.2857 14.8508 20.2857 13.7141C20.2857 12.5775 19.8342 11.4874 19.0305 10.6837C18.2268 9.87996 17.1367 9.42843 16 9.42843Z" fill="white"/>
</svg>
